<svg xmlns="http://www.w3.org/2000/svg" width="892" height="166" viewBox="0 0 892 166" font-family="-apple-system,Segoe UI,Helvetica,Arial,sans-serif">
<style>
  text.lbl { fill:#7d8590; font-size:13px; font-weight:600; }
  text.total { fill:#e6edf3; font-size:15px; font-weight:700; }
  .c { transform-box:fill-box; transform-origin:center; opacity:0; animation:pop 0.55s ease-out both; }
  .g { animation:pop 0.55s ease-out both, flash 0.7s ease-out both; }
  @keyframes pop { 0%{opacity:0;transform:scale(.2)} 60%{opacity:1;transform:scale(1.1)} 100%{opacity:1;transform:scale(1)} }
  @keyframes flash { 0%{filter:brightness(2.4)} 45%{filter:brightness(2.4)} 100%{filter:brightness(1)} }
  @media (prefers-reduced-motion: reduce) { .c { opacity:1 !important; animation:none !important; } }
</style>
<rect width="892" height="166" fill="none"/>
<text class="lbl" x="50" y="16">Aug</text><text class="lbl" x="130" y="16">Sep</text><text class="lbl" x="194" y="16">Oct</text><text class="lbl" x="258" y="16">Nov</text><text class="lbl" x="338" y="16">Dec</text><text class="lbl" x="402" y="16">Jan</text><text class="lbl" x="482" y="16">Feb</text><text class="lbl" x="546" y="16">Mar</text><text class="lbl" x="610" y="16">Apr</text><text class="lbl" x="674" y="16">May</text><text class="lbl" x="754" y="16">Jun</text><text class="lbl" x="818" y="16">Jul</text><text class="lbl" x="2" y="44">Mon</text><text class="lbl" x="2" y="76">Wed</text><text class="lbl" x="2" y="108">Fri</text>
<rect class="c g e" x="34" y="24" width="13" height="13" rx="2.5" fill="#161b22" style="animation-delay:0.0s"/><rect class="c g e" x="34" y="40" width="13" height="13" rx="2.5" fill="#161b22" style="animation-delay:0.018s"/><rect class="c g e" x="34" y="56" width="13" height="13" rx="2.5" fill="#161b22" style="animation-delay:0.036s"/><rect class="c g e" x="34" y="72" width="13" height="13" rx="2.5" fill="#161b22" style="animation-delay:0.054s"/><rect class="c g e" x="34" y="88" width="13" height="13" rx="2.5" fill="#161b22" style="animation-delay:0.072s"/><rect class="c g e" x="34" y="104" width="13" height="13" rx="2.5" fill="#161b22" style="animation-delay:0.09s"/><rect class="c g e" x="34" y="120" width="13" height="13" rx="2.5" fill="#161b22" style="animation-delay:0.108s"/><rect class="c g e" x="50" y="24" width="13" height="13" rx="2.5" fill="#161b22" style="animation-delay:0.126s"/><rect class="c g e" x="50" y="40" width="13" height="13" rx="2.5" fill="#161b22" style="animation-delay:0.144s"/><rect class="c g e" x="50" y="56" width="13" height="13" rx="2.5" fill="#161b22" style="animation-delay:0.162s"/><rect class="c g e" x="50" y="72" width="13" height="13" rx="2.5" fill="#161b22" style="animation-delay:0.18s"/><rect class="c g e" x="50" y="88" width="13" height="13" rx="2.5" fill="#161b22" style="animation-delay:0.198s"/><rect class="c g e" x="50" y="104" width="13" height="13" rx="2.5" fill="#161b22" style="animation-delay:0.216s"/><rect class="c g e" x="50" y="120" width="13" height="13" rx="2.5" fill="#161b22" style="animation-delay:0.234s"/><rect class="c g e" x="66" y="24" width="13" height="13" rx="2.5" fill="#161b22" style="animation-delay:0.252s"/><rect class="c g e" x="66" y="40" width="13" height="13" rx="2.5" fill="#161b22" style="animation-delay:0.27s"/><rect class="c g e" x="66" y="56" width="13" height="13" rx="2.5" fill="#161b22" style="animation-delay:0.288s"/><rect class="c g e" x="66" y="72" width="13" height="13" rx="2.5" fill="#161b22" style="animation-delay:0.306s"/><rect class="c g e" x="66" y="88" width="13" height="13" rx="2.5" fill="#161b22" style="animation-delay:0.324s"/><rect class="c g e" x="66" y="104" width="13" height="13" rx="2.5" fill="#161b22" style="animation-delay:0.342s"/><rect class="c g e" x="66" y="120" width="13" height="13" rx="2.5" fill="#161b22" style="animation-delay:0.36s"/><rect class="c g e" x="82" y="24" width="13" height="13" rx="2.5" fill="#161b22" style="animation-delay:0.378s"/><rect class="c g e" x="82" y="40" width="13" height="13" rx="2.5" fill="#161b22" style="animation-delay:0.396s"/><rect class="c g e" x="82" y="56" width="13" height="13" rx="2.5" fill="#161b22" style="animation-delay:0.414s"/><rect class="c g e" x="82" y="72" width="13" height="13" rx="2.5" fill="#161b22" style="animation-delay:0.432s"/><rect class="c g" x="82" y="88" width="13" height="13" rx="2.5" fill="#39d353" style="animation-delay:0.45s"/><rect class="c g e" x="82" y="104" width="13" height="13" rx="2.5" fill="#161b22" style="animation-delay:0.468s"/><rect class="c g e" x="82" y="120" width="13" height="13" rx="2.5" fill="#161b22" style="animation-delay:0.486s"/><rect class="c g e" x="98" y="24" width="13" height="13" rx="2.5" fill="#161b22" style="animation-delay:0.504s"/><rect class="c g e" x="98" y="40" width="13" height="13" rx="2.5" fill="#161b22" style="animation-delay:0.522s"/><rect class="c g e" x="98" y="56" width="13" height="13" rx="2.5" fill="#161b22" style="animation-delay:0.54s"/><rect class="c g e" x="98" y="72" width="13" height="13" rx="2.5" fill="#161b22" style="animation-delay:0.558s"/><rect class="c g e" x="98" y="88" width="13" height="13" rx="2.5" fill="#161b22" style="animation-delay:0.576s"/><rect class="c g e" x="98" y="104" width="13" height="13" rx="2.5" fill="#161b22" style="animation-delay:0.594s"/><rect class="c g e" x="98" y="120" width="13" height="13" rx="2.5" fill="#161b22" style="animation-delay:0.612s"/><rect class="c g e" x="114" y="24" width="13" height="13" rx="2.5" fill="#161b22" style="animation-delay:0.63s"/><rect class="c g e" x="114" y="40" width="13" height="13" rx="2.5" fill="#161b22" style="animation-delay:0.648s"/><rect class="c g e" x="114" y="56" width="13" height="13" rx="2.5" fill="#161b22" style="animation-delay:0.666s"/><rect class="c g e" x="114" y="72" width="13" height="13" rx="2.5" fill="#161b22" style="animation-delay:0.684s"/><rect class="c g e" x="114" y="88" width="13" height="13" rx="2.5" fill="#161b22" style="animation-delay:0.702s"/><rect class="c g e" x="114" y="104" width="13" height="13" rx="2.5" fill="#161b22" style="animation-delay:0.72s"/><rect class="c g e" x="114" y="120" width="13" height="13" rx="2.5" fill="#161b22" style="animation-delay:0.738s"/><rect class="c g e" x="130" y="24" width="13" height="13" rx="2.5" fill="#161b22" style="animation-delay:0.756s"/><rect class="c g e" x="130" y="40" width="13" height="13" rx="2.5" fill="#161b22" style="animation-delay:0.774s"/><rect class="c g e" x="130" y="56" width="13" height="13" rx="2.5" fill="#161b22" style="animation-delay:0.792s"/><rect class="c g e" x="130" y="72" width="13" height="13" rx="2.5" fill="#161b22" style="animation-delay:0.81s"/><rect class="c g e" x="130" y="88" width="13" height="13" rx="2.5" fill="#161b22" style="animation-delay:0.828s"/><rect class="c g e" x="130" y="104" width="13" height="13" rx="2.5" fill="#161b22" style="animation-delay:0.846s"/><rect class="c g e" x="130" y="120" width="13" height="13" rx="2.5" fill="#161b22" style="animation-delay:0.864s"/><rect class="c g e" x="146" y="24" width="13" height="13" rx="2.5" fill="#161b22" style="animation-delay:0.882s"/><rect class="c g e" x="146" y="40" width="13" height="13" rx="2.5" fill="#161b22" style="animation-delay:0.9s"/><rect class="c g e" x="146" y="56" width="13" height="13" rx="2.5" fill="#161b22" style="animation-delay:0.918s"/><rect class="c g e" x="146" y="72" width="13" height="13" rx="2.5" fill="#161b22" style="animation-delay:0.936s"/><rect class="c g e" x="146" y="88" width="13" height="13" rx="2.5" fill="#161b22" style="animation-delay:0.954s"/><rect class="c g e" x="146" y="104" width="13" height="13" rx="2.5" fill="#161b22" style="animation-delay:0.972s"/><rect class="c g e" x="146" y="120" width="13" height="13" rx="2.5" fill="#161b22" style="animation-delay:0.99s"/><rect class="c g e" x="162" y="24" width="13" height="13" rx="2.5" fill="#161b22" style="animation-delay:1.008s"/><rect class="c g e" x="162" y="40" width="13" height="13" rx="2.5" fill="#161b22" style="animation-delay:1.026s"/><rect class="c g e" x="162" y="56" width="13" height="13" rx="2.5" fill="#161b22" style="animation-delay:1.044s"/><rect class="c g e" x="162" y="72" width="13" height="13" rx="2.5" fill="#161b22" style="animation-delay:1.062s"/><rect class="c g e" x="162" y="88" width="13" height="13" rx="2.5" fill="#161b22" style="animation-delay:1.08s"/><rect class="c g e" x="162" y="104" width="13" height="13" rx="2.5" fill="#161b22" style="animation-delay:1.098s"/><rect class="c g e" x="162" y="120" width="13" height="13" rx="2.5" fill="#161b22" style="animation-delay:1.116s"/><rect class="c g e" x="178" y="24" width="13" height="13" rx="2.5" fill="#161b22" style="animation-delay:1.134s"/><rect class="c g e" x="178" y="40" width="13" height="13" rx="2.5" fill="#161b22" style="animation-delay:1.152s"/><rect class="c g e" x="178" y="56" width="13" height="13" rx="2.5" fill="#161b22" style="animation-delay:1.17s"/><rect class="c g e" x="178" y="72" width="13" height="13" rx="2.5" fill="#161b22" style="animation-delay:1.188s"/><rect class="c g e" x="178" y="88" width="13" height="13" rx="2.5" fill="#161b22" style="animation-delay:1.206s"/><rect class="c g e" x="178" y="104" width="13" height="13" rx="2.5" fill="#161b22" style="animation-delay:1.224s"/><rect class="c g e" x="178" y="120" width="13" height="13" rx="2.5" fill="#161b22" style="animation-delay:1.242s"/><rect class="c g e" x="194" y="24" width="13" height="13" rx="2.5" fill="#161b22" style="animation-delay:1.26s"/><rect class="c g e" x="194" y="40" width="13" height="13" rx="2.5" fill="#161b22" style="animation-delay:1.278s"/><rect class="c g e" x="194" y="56" width="13" height="13" rx="2.5" fill="#161b22" style="animation-delay:1.296s"/><rect class="c g e" x="194" y="72" width="13" height="13" rx="2.5" fill="#161b22" style="animation-delay:1.314s"/><rect class="c g e" x="194" y="88" width="13" height="13" rx="2.5" fill="#161b22" style="animation-delay:1.332s"/><rect class="c g e" x="194" y="104" width="13" height="13" rx="2.5" fill="#161b22" style="animation-delay:1.35s"/><rect class="c g e" x="194" y="120" width="13" height="13" rx="2.5" fill="#161b22" style="animation-delay:1.368s"/><rect class="c g e" x="210" y="24" width="13" height="13" rx="2.5" fill="#161b22" style="animation-delay:1.386s"/><rect class="c g e" x="210" y="40" width="13" height="13" rx="2.5" fill="#161b22" style="animation-delay:1.404s"/><rect class="c g e" x="210" y="56" width="13" height="13" rx="2.5" fill="#161b22" style="animation-delay:1.422s"/><rect class="c g e" x="210" y="72" width="13" height="13" rx="2.5" fill="#161b22" style="animation-delay:1.44s"/><rect class="c g e" x="210" y="88" width="13" height="13" rx="2.5" fill="#161b22" style="animation-delay:1.458s"/><rect class="c g e" x="210" y="104" width="13" height="13" rx="2.5" fill="#161b22" style="animation-delay:1.476s"/><rect class="c g e" x="210" y="120" width="13" height="13" rx="2.5" fill="#161b22" style="animation-delay:1.494s"/><rect class="c g e" x="226" y="24" width="13" height="13" rx="2.5" fill="#161b22" style="animation-delay:1.512s"/><rect class="c g e" x="226" y="40" width="13" height="13" rx="2.5" fill="#161b22" style="animation-delay:1.53s"/><rect class="c g e" x="226" y="56" width="13" height="13" rx="2.5" fill="#161b22" style="animation-delay:1.548s"/><rect class="c g e" x="226" y="72" width="13" height="13" rx="2.5" fill="#161b22" style="animation-delay:1.566s"/><rect class="c g e" x="226" y="88" width="13" height="13" rx="2.5" fill="#161b22" style="animation-delay:1.584s"/><rect class="c g e" x="226" y="104" width="13" height="13" rx="2.5" fill="#161b22" style="animation-delay:1.602s"/><rect class="c g e" x="226" y="120" width="13" height="13" rx="2.5" fill="#161b22" style="animation-delay:1.62s"/><rect class="c g e" x="242" y="24" width="13" height="13" rx="2.5" fill="#161b22" style="animation-delay:1.638s"/><rect class="c g e" x="242" y="40" width="13" height="13" rx="2.5" fill="#161b22" style="animation-delay:1.656s"/><rect class="c g e" x="242" y="56" width="13" height="13" rx="2.5" fill="#161b22" style="animation-delay:1.674s"/><rect class="c g e" x="242" y="72" width="13" height="13" rx="2.5" fill="#161b22" style="animation-delay:1.692s"/><rect class="c g e" x="242" y="88" width="13" height="13" rx="2.5" fill="#161b22" style="animation-delay:1.71s"/><rect class="c g e" x="242" y="104" width="13" height="13" rx="2.5" fill="#161b22" style="animation-delay:1.728s"/><rect class="c g e" x="242" y="120" width="13" height="13" rx="2.5" fill="#161b22" style="animation-delay:1.746s"/><rect class="c g e" x="258" y="24" width="13" height="13" rx="2.5" fill="#161b22" style="animation-delay:1.764s"/><rect class="c g e" x="258" y="40" width="13" height="13" rx="2.5" fill="#161b22" style="animation-delay:1.782s"/><rect class="c g e" x="258" y="56" width="13" height="13" rx="2.5" fill="#161b22" style="animation-delay:1.8s"/><rect class="c g e" x="258" y="72" width="13" height="13" rx="2.5" fill="#161b22" style="animation-delay:1.818s"/><rect class="c g e" x="258" y="88" width="13" height="13" rx="2.5" fill="#161b22" style="animation-delay:1.836s"/><rect class="c g e" x="258" y="104" width="13" height="13" rx="2.5" fill="#161b22" style="animation-delay:1.854s"/><rect class="c g e" x="258" y="120" width="13" height="13" rx="2.5" fill="#161b22" style="animation-delay:1.872s"/><rect class="c g e" x="274" y="24" width="13" height="13" rx="2.5" fill="#161b22" style="animation-delay:1.89s"/><rect class="c g e" x="274" y="40" width="13" height="13" rx="2.5" fill="#161b22" style="animation-delay:1.908s"/><rect class="c g e" x="274" y="56" width="13" height="13" rx="2.5" fill="#161b22" style="animation-delay:1.926s"/><rect class="c g e" x="274" y="72" width="13" height="13" rx="2.5" fill="#161b22" style="animation-delay:1.944s"/><rect class="c g e" x="274" y="88" width="13" height="13" rx="2.5" fill="#161b22" style="animation-delay:1.962s"/><rect class="c g e" x="274" y="104" width="13" height="13" rx="2.5" fill="#161b22" style="animation-delay:1.98s"/><rect class="c g e" x="274" y="120" width="13" height="13" rx="2.5" fill="#161b22" style="animation-delay:1.998s"/><rect class="c g e" x="290" y="24" width="13" height="13" rx="2.5" fill="#161b22" style="animation-delay:2.016s"/><rect class="c g e" x="290" y="40" width="13" height="13" rx="2.5" fill="#161b22" style="animation-delay:2.034s"/><rect class="c g e" x="290" y="56" width="13" height="13" rx="2.5" fill="#161b22" style="animation-delay:2.052s"/><rect class="c g e" x="290" y="72" width="13" height="13" rx="2.5" fill="#161b22" style="animation-delay:2.07s"/><rect class="c g e" x="290" y="88" width="13" height="13" rx="2.5" fill="#161b22" style="animation-delay:2.088s"/><rect class="c g e" x="290" y="104" width="13" height="13" rx="2.5" fill="#161b22" style="animation-delay:2.106s"/><rect class="c g e" x="290" y="120" width="13" height="13" rx="2.5" fill="#161b22" style="animation-delay:2.124s"/><rect class="c g e" x="306" y="24" width="13" height="13" rx="2.5" fill="#161b22" style="animation-delay:2.142s"/><rect class="c g e" x="306" y="40" width="13" height="13" rx="2.5" fill="#161b22" style="animation-delay:2.16s"/><rect class="c g e" x="306" y="56" width="13" height="13" rx="2.5" fill="#161b22" style="animation-delay:2.178s"/><rect class="c g e" x="306" y="72" width="13" height="13" rx="2.5" fill="#161b22" style="animation-delay:2.196s"/><rect class="c g e" x="306" y="88" width="13" height="13" rx="2.5" fill="#161b22" style="animation-delay:2.214s"/><rect class="c g e" x="306" y="104" width="13" height="13" rx="2.5" fill="#161b22" style="animation-delay:2.232s"/><rect class="c g e" x="306" y="120" width="13" height="13" rx="2.5" fill="#161b22" style="animation-delay:2.25s"/><rect class="c g e" x="322" y="24" width="13" height="13" rx="2.5" fill="#161b22" style="animation-delay:2.268s"/><rect class="c g e" x="322" y="40" width="13" height="13" rx="2.5" fill="#161b22" style="animation-delay:2.286s"/><rect class="c g e" x="322" y="56" width="13" height="13" rx="2.5" fill="#161b22" style="animation-delay:2.304s"/><rect class="c g e" x="322" y="72" width="13" height="13" rx="2.5" fill="#161b22" style="animation-delay:2.322s"/><rect class="c g e" x="322" y="88" width="13" height="13" rx="2.5" fill="#161b22" style="animation-delay:2.34s"/><rect class="c g e" x="322" y="104" width="13" height="13" rx="2.5" fill="#161b22" style="animation-delay:2.358s"/><rect class="c g e" x="322" y="120" width="13" height="13" rx="2.5" fill="#161b22" style="animation-delay:2.376s"/><rect class="c g e" x="338" y="24" width="13" height="13" rx="2.5" fill="#161b22" style="animation-delay:2.394s"/><rect class="c g e" x="338" y="40" width="13" height="13" rx="2.5" fill="#161b22" style="animation-delay:2.412s"/><rect class="c g e" x="338" y="56" width="13" height="13" rx="2.5" fill="#161b22" style="animation-delay:2.43s"/><rect class="c g e" x="338" y="72" width="13" height="13" rx="2.5" fill="#161b22" style="animation-delay:2.448s"/><rect class="c g e" x="338" y="88" width="13" height="13" rx="2.5" fill="#161b22" style="animation-delay:2.466s"/><rect class="c g e" x="338" y="104" width="13" height="13" rx="2.5" fill="#161b22" style="animation-delay:2.484s"/><rect class="c g e" x="338" y="120" width="13" height="13" rx="2.5" fill="#161b22" style="animation-delay:2.502s"/><rect class="c g e" x="354" y="24" width="13" height="13" rx="2.5" fill="#161b22" style="animation-delay:2.52s"/><rect class="c g e" x="354" y="40" width="13" height="13" rx="2.5" fill="#161b22" style="animation-delay:2.538s"/><rect class="c g e" x="354" y="56" width="13" height="13" rx="2.5" fill="#161b22" style="animation-delay:2.556s"/><rect class="c g e" x="354" y="72" width="13" height="13" rx="2.5" fill="#161b22" style="animation-delay:2.574s"/><rect class="c g e" x="354" y="88" width="13" height="13" rx="2.5" fill="#161b22" style="animation-delay:2.592s"/><rect class="c g e" x="354" y="104" width="13" height="13" rx="2.5" fill="#161b22" style="animation-delay:2.61s"/><rect class="c g e" x="354" y="120" width="13" height="13" rx="2.5" fill="#161b22" style="animation-delay:2.628s"/><rect class="c g e" x="370" y="24" width="13" height="13" rx="2.5" fill="#161b22" style="animation-delay:2.646s"/><rect class="c g e" x="370" y="40" width="13" height="13" rx="2.5" fill="#161b22" style="animation-delay:2.664s"/><rect class="c g e" x="370" y="56" width="13" height="13" rx="2.5" fill="#161b22" style="animation-delay:2.682s"/><rect class="c g e" x="370" y="72" width="13" height="13" rx="2.5" fill="#161b22" style="animation-delay:2.7s"/><rect class="c g e" x="370" y="88" width="13" height="13" rx="2.5" fill="#161b22" style="animation-delay:2.718s"/><rect class="c g e" x="370" y="104" width="13" height="13" rx="2.5" fill="#161b22" style="animation-delay:2.736s"/><rect class="c g e" x="370" y="120" width="13" height="13" rx="2.5" fill="#161b22" style="animation-delay:2.754s"/><rect class="c g e" x="386" y="24" width="13" height="13" rx="2.5" fill="#161b22" style="animation-delay:2.772s"/><rect class="c g e" x="386" y="40" width="13" height="13" rx="2.5" fill="#161b22" style="animation-delay:2.79s"/><rect class="c g e" x="386" y="56" width="13" height="13" rx="2.5" fill="#161b22" style="animation-delay:2.808s"/><rect class="c g e" x="386" y="72" width="13" height="13" rx="2.5" fill="#161b22" style="animation-delay:2.826s"/><rect class="c g e" x="386" y="88" width="13" height="13" rx="2.5" fill="#161b22" style="animation-delay:2.844s"/><rect class="c g e" x="386" y="104" width="13" height="13" rx="2.5" fill="#161b22" style="animation-delay:2.862s"/><rect class="c g e" x="386" y="120" width="13" height="13" rx="2.5" fill="#161b22" style="animation-delay:2.88s"/><rect class="c g e" x="402" y="24" width="13" height="13" rx="2.5" fill="#161b22" style="animation-delay:2.898s"/><rect class="c g e" x="402" y="40" width="13" height="13" rx="2.5" fill="#161b22" style="animation-delay:2.916s"/><rect class="c g e" x="402" y="56" width="13" height="13" rx="2.5" fill="#161b22" style="animation-delay:2.934s"/><rect class="c g e" x="402" y="72" width="13" height="13" rx="2.5" fill="#161b22" style="animation-delay:2.952s"/><rect class="c g e" x="402" y="88" width="13" height="13" rx="2.5" fill="#161b22" style="animation-delay:2.97s"/><rect class="c g e" x="402" y="104" width="13" height="13" rx="2.5" fill="#161b22" style="animation-delay:2.988s"/><rect class="c g e" x="402" y="120" width="13" height="13" rx="2.5" fill="#161b22" style="animation-delay:3.006s"/><rect class="c g e" x="418" y="24" width="13" height="13" rx="2.5" fill="#161b22" style="animation-delay:3.024s"/><rect class="c g e" x="418" y="40" width="13" height="13" rx="2.5" fill="#161b22" style="animation-delay:3.042s"/><rect class="c g e" x="418" y="56" width="13" height="13" rx="2.5" fill="#161b22" style="animation-delay:3.06s"/><rect class="c g e" x="418" y="72" width="13" height="13" rx="2.5" fill="#161b22" style="animation-delay:3.078s"/><rect class="c g e" x="418" y="88" width="13" height="13" rx="2.5" fill="#161b22" style="animation-delay:3.096s"/><rect class="c g e" x="418" y="104" width="13" height="13" rx="2.5" fill="#161b22" style="animation-delay:3.114s"/><rect class="c g e" x="418" y="120" width="13" height="13" rx="2.5" fill="#161b22" style="animation-delay:3.132s"/><rect class="c g e" x="434" y="24" width="13" height="13" rx="2.5" fill="#161b22" style="animation-delay:3.15s"/><rect class="c g e" x="434" y="40" width="13" height="13" rx="2.5" fill="#161b22" style="animation-delay:3.168s"/><rect class="c g e" x="434" y="56" width="13" height="13" rx="2.5" fill="#161b22" style="animation-delay:3.186s"/><rect class="c g e" x="434" y="72" width="13" height="13" rx="2.5" fill="#161b22" style="animation-delay:3.204s"/><rect class="c g e" x="434" y="88" width="13" height="13" rx="2.5" fill="#161b22" style="animation-delay:3.222s"/><rect class="c g e" x="434" y="104" width="13" height="13" rx="2.5" fill="#161b22" style="animation-delay:3.24s"/><rect class="c g e" x="434" y="120" width="13" height="13" rx="2.5" fill="#161b22" style="animation-delay:3.258s"/><rect class="c g e" x="450" y="24" width="13" height="13" rx="2.5" fill="#161b22" style="animation-delay:3.276s"/><rect class="c g e" x="450" y="40" width="13" height="13" rx="2.5" fill="#161b22" style="animation-delay:3.294s"/><rect class="c g e" x="450" y="56" width="13" height="13" rx="2.5" fill="#161b22" style="animation-delay:3.312s"/><rect class="c g e" x="450" y="72" width="13" height="13" rx="2.5" fill="#161b22" style="animation-delay:3.33s"/><rect class="c g e" x="450" y="88" width="13" height="13" rx="2.5" fill="#161b22" style="animation-delay:3.348s"/><rect class="c g e" x="450" y="104" width="13" height="13" rx="2.5" fill="#161b22" style="animation-delay:3.366s"/><rect class="c g e" x="450" y="120" width="13" height="13" rx="2.5" fill="#161b22" style="animation-delay:3.384s"/><rect class="c g e" x="466" y="24" width="13" height="13" rx="2.5" fill="#161b22" style="animation-delay:3.402s"/><rect class="c g e" x="466" y="40" width="13" height="13" rx="2.5" fill="#161b22" style="animation-delay:3.42s"/><rect class="c g e" x="466" y="56" width="13" height="13" rx="2.5" fill="#161b22" style="animation-delay:3.438s"/><rect class="c g e" x="466" y="72" width="13" height="13" rx="2.5" fill="#161b22" style="animation-delay:3.456s"/><rect class="c g e" x="466" y="88" width="13" height="13" rx="2.5" fill="#161b22" style="animation-delay:3.474s"/><rect class="c g e" x="466" y="104" width="13" height="13" rx="2.5" fill="#161b22" style="animation-delay:3.492s"/><rect class="c g e" x="466" y="120" width="13" height="13" rx="2.5" fill="#161b22" style="animation-delay:3.51s"/><rect class="c g e" x="482" y="24" width="13" height="13" rx="2.5" fill="#161b22" style="animation-delay:3.528s"/><rect class="c g e" x="482" y="40" width="13" height="13" rx="2.5" fill="#161b22" style="animation-delay:3.546s"/><rect class="c g e" x="482" y="56" width="13" height="13" rx="2.5" fill="#161b22" style="animation-delay:3.564s"/><rect class="c g e" x="482" y="72" width="13" height="13" rx="2.5" fill="#161b22" style="animation-delay:3.582s"/><rect class="c g e" x="482" y="88" width="13" height="13" rx="2.5" fill="#161b22" style="animation-delay:3.6s"/><rect class="c g e" x="482" y="104" width="13" height="13" rx="2.5" fill="#161b22" style="animation-delay:3.618s"/><rect class="c g e" x="482" y="120" width="13" height="13" rx="2.5" fill="#161b22" style="animation-delay:3.636s"/><rect class="c g e" x="498" y="24" width="13" height="13" rx="2.5" fill="#161b22" style="animation-delay:3.654s"/><rect class="c g e" x="498" y="40" width="13" height="13" rx="2.5" fill="#161b22" style="animation-delay:3.672s"/><rect class="c g e" x="498" y="56" width="13" height="13" rx="2.5" fill="#161b22" style="animation-delay:3.69s"/><rect class="c g e" x="498" y="72" width="13" height="13" rx="2.5" fill="#161b22" style="animation-delay:3.708s"/><rect class="c g e" x="498" y="88" width="13" height="13" rx="2.5" fill="#161b22" style="animation-delay:3.726s"/><rect class="c g e" x="498" y="104" width="13" height="13" rx="2.5" fill="#161b22" style="animation-delay:3.744s"/><rect class="c g e" x="498" y="120" width="13" height="13" rx="2.5" fill="#161b22" style="animation-delay:3.762s"/><rect class="c g e" x="514" y="24" width="13" height="13" rx="2.5" fill="#161b22" style="animation-delay:3.78s"/><rect class="c g e" x="514" y="40" width="13" height="13" rx="2.5" fill="#161b22" style="animation-delay:3.798s"/><rect class="c g e" x="514" y="56" width="13" height="13" rx="2.5" fill="#161b22" style="animation-delay:3.816s"/><rect class="c g e" x="514" y="72" width="13" height="13" rx="2.5" fill="#161b22" style="animation-delay:3.834s"/><rect class="c g e" x="514" y="88" width="13" height="13" rx="2.5" fill="#161b22" style="animation-delay:3.852s"/><rect class="c g e" x="514" y="104" width="13" height="13" rx="2.5" fill="#161b22" style="animation-delay:3.87s"/><rect class="c g e" x="514" y="120" width="13" height="13" rx="2.5" fill="#161b22" style="animation-delay:3.888s"/><rect class="c g e" x="530" y="24" width="13" height="13" rx="2.5" fill="#161b22" style="animation-delay:3.906s"/><rect class="c g e" x="530" y="40" width="13" height="13" rx="2.5" fill="#161b22" style="animation-delay:3.924s"/><rect class="c g e" x="530" y="56" width="13" height="13" rx="2.5" fill="#161b22" style="animation-delay:3.942s"/><rect class="c g e" x="530" y="72" width="13" height="13" rx="2.5" fill="#161b22" style="animation-delay:3.96s"/><rect class="c g e" x="530" y="88" width="13" height="13" rx="2.5" fill="#161b22" style="animation-delay:3.978s"/><rect class="c g e" x="530" y="104" width="13" height="13" rx="2.5" fill="#161b22" style="animation-delay:3.996s"/><rect class="c g e" x="530" y="120" width="13" height="13" rx="2.5" fill="#161b22" style="animation-delay:4.014s"/><rect class="c g e" x="546" y="24" width="13" height="13" rx="2.5" fill="#161b22" style="animation-delay:4.032s"/><rect class="c g e" x="546" y="40" width="13" height="13" rx="2.5" fill="#161b22" style="animation-delay:4.05s"/><rect class="c g e" x="546" y="56" width="13" height="13" rx="2.5" fill="#161b22" style="animation-delay:4.068s"/><rect class="c g e" x="546" y="72" width="13" height="13" rx="2.5" fill="#161b22" style="animation-delay:4.086s"/><rect class="c g e" x="546" y="88" width="13" height="13" rx="2.5" fill="#161b22" style="animation-delay:4.104s"/><rect class="c g e" x="546" y="104" width="13" height="13" rx="2.5" fill="#161b22" style="animation-delay:4.122s"/><rect class="c g e" x="546" y="120" width="13" height="13" rx="2.5" fill="#161b22" style="animation-delay:4.14s"/><rect class="c g e" x="562" y="24" width="13" height="13" rx="2.5" fill="#161b22" style="animation-delay:4.158s"/><rect class="c g e" x="562" y="40" width="13" height="13" rx="2.5" fill="#161b22" style="animation-delay:4.176s"/><rect class="c g e" x="562" y="56" width="13" height="13" rx="2.5" fill="#161b22" style="animation-delay:4.194s"/><rect class="c g e" x="562" y="72" width="13" height="13" rx="2.5" fill="#161b22" style="animation-delay:4.212s"/><rect class="c g e" x="562" y="88" width="13" height="13" rx="2.5" fill="#161b22" style="animation-delay:4.23s"/><rect class="c g e" x="562" y="104" width="13" height="13" rx="2.5" fill="#161b22" style="animation-delay:4.248s"/><rect class="c g e" x="562" y="120" width="13" height="13" rx="2.5" fill="#161b22" style="animation-delay:4.266s"/><rect class="c g e" x="578" y="24" width="13" height="13" rx="2.5" fill="#161b22" style="animation-delay:4.284s"/><rect class="c g e" x="578" y="40" width="13" height="13" rx="2.5" fill="#161b22" style="animation-delay:4.302s"/><rect class="c g e" x="578" y="56" width="13" height="13" rx="2.5" fill="#161b22" style="animation-delay:4.32s"/><rect class="c g e" x="578" y="72" width="13" height="13" rx="2.5" fill="#161b22" style="animation-delay:4.338s"/><rect class="c g e" x="578" y="88" width="13" height="13" rx="2.5" fill="#161b22" style="animation-delay:4.356s"/><rect class="c g e" x="578" y="104" width="13" height="13" rx="2.5" fill="#161b22" style="animation-delay:4.374s"/><rect class="c g" x="578" y="120" width="13" height="13" rx="2.5" fill="#39d353" style="animation-delay:4.392s"/><rect class="c g e" x="594" y="24" width="13" height="13" rx="2.5" fill="#161b22" style="animation-delay:4.41s"/><rect class="c g e" x="594" y="40" width="13" height="13" rx="2.5" fill="#161b22" style="animation-delay:4.428s"/><rect class="c g e" x="594" y="56" width="13" height="13" rx="2.5" fill="#161b22" style="animation-delay:4.446s"/><rect class="c g e" x="594" y="72" width="13" height="13" rx="2.5" fill="#161b22" style="animation-delay:4.464s"/><rect class="c g e" x="594" y="88" width="13" height="13" rx="2.5" fill="#161b22" style="animation-delay:4.482s"/><rect class="c g e" x="594" y="104" width="13" height="13" rx="2.5" fill="#161b22" style="animation-delay:4.5s"/><rect class="c g e" x="594" y="120" width="13" height="13" rx="2.5" fill="#161b22" style="animation-delay:4.518s"/><rect class="c g e" x="610" y="24" width="13" height="13" rx="2.5" fill="#161b22" style="animation-delay:4.536s"/><rect class="c g e" x="610" y="40" width="13" height="13" rx="2.5" fill="#161b22" style="animation-delay:4.554s"/><rect class="c g e" x="610" y="56" width="13" height="13" rx="2.5" fill="#161b22" style="animation-delay:4.572s"/><rect class="c g e" x="610" y="72" width="13" height="13" rx="2.5" fill="#161b22" style="animation-delay:4.59s"/><rect class="c g e" x="610" y="88" width="13" height="13" rx="2.5" fill="#161b22" style="animation-delay:4.608s"/><rect class="c g e" x="610" y="104" width="13" height="13" rx="2.5" fill="#161b22" style="animation-delay:4.626s"/><rect class="c g e" x="610" y="120" width="13" height="13" rx="2.5" fill="#161b22" style="animation-delay:4.644s"/><rect class="c g e" x="626" y="24" width="13" height="13" rx="2.5" fill="#161b22" style="animation-delay:4.662s"/><rect class="c g e" x="626" y="40" width="13" height="13" rx="2.5" fill="#161b22" style="animation-delay:4.68s"/><rect class="c g e" x="626" y="56" width="13" height="13" rx="2.5" fill="#161b22" style="animation-delay:4.698s"/><rect class="c g e" x="626" y="72" width="13" height="13" rx="2.5" fill="#161b22" style="animation-delay:4.716s"/><rect class="c g e" x="626" y="88" width="13" height="13" rx="2.5" fill="#161b22" style="animation-delay:4.734s"/><rect class="c g e" x="626" y="104" width="13" height="13" rx="2.5" fill="#161b22" style="animation-delay:4.752s"/><rect class="c g e" x="626" y="120" width="13" height="13" rx="2.5" fill="#161b22" style="animation-delay:4.77s"/><rect class="c g e" x="642" y="24" width="13" height="13" rx="2.5" fill="#161b22" style="animation-delay:4.788s"/><rect class="c g e" x="642" y="40" width="13" height="13" rx="2.5" fill="#161b22" style="animation-delay:4.806s"/><rect class="c g e" x="642" y="56" width="13" height="13" rx="2.5" fill="#161b22" style="animation-delay:4.824s"/><rect class="c g e" x="642" y="72" width="13" height="13" rx="2.5" fill="#161b22" style="animation-delay:4.842s"/><rect class="c g e" x="642" y="88" width="13" height="13" rx="2.5" fill="#161b22" style="animation-delay:4.86s"/><rect class="c g e" x="642" y="104" width="13" height="13" rx="2.5" fill="#161b22" style="animation-delay:4.878s"/><rect class="c g e" x="642" y="120" width="13" height="13" rx="2.5" fill="#161b22" style="animation-delay:4.896s"/><rect class="c g e" x="658" y="24" width="13" height="13" rx="2.5" fill="#161b22" style="animation-delay:4.914s"/><rect class="c g e" x="658" y="40" width="13" height="13" rx="2.5" fill="#161b22" style="animation-delay:4.932s"/><rect class="c g e" x="658" y="56" width="13" height="13" rx="2.5" fill="#161b22" style="animation-delay:4.95s"/><rect class="c g e" x="658" y="72" width="13" height="13" rx="2.5" fill="#161b22" style="animation-delay:4.968s"/><rect class="c g e" x="658" y="88" width="13" height="13" rx="2.5" fill="#161b22" style="animation-delay:4.986s"/><rect class="c g e" x="658" y="104" width="13" height="13" rx="2.5" fill="#161b22" style="animation-delay:5.004s"/><rect class="c g e" x="658" y="120" width="13" height="13" rx="2.5" fill="#161b22" style="animation-delay:5.022s"/><rect class="c g e" x="674" y="24" width="13" height="13" rx="2.5" fill="#161b22" style="animation-delay:5.04s"/><rect class="c g e" x="674" y="40" width="13" height="13" rx="2.5" fill="#161b22" style="animation-delay:5.058s"/><rect class="c g e" x="674" y="56" width="13" height="13" rx="2.5" fill="#161b22" style="animation-delay:5.076s"/><rect class="c g e" x="674" y="72" width="13" height="13" rx="2.5" fill="#161b22" style="animation-delay:5.094s"/><rect class="c g e" x="674" y="88" width="13" height="13" rx="2.5" fill="#161b22" style="animation-delay:5.112s"/><rect class="c g e" x="674" y="104" width="13" height="13" rx="2.5" fill="#161b22" style="animation-delay:5.13s"/><rect class="c g e" x="674" y="120" width="13" height="13" rx="2.5" fill="#161b22" style="animation-delay:5.148s"/><rect class="c g e" x="690" y="24" width="13" height="13" rx="2.5" fill="#161b22" style="animation-delay:5.166s"/><rect class="c g e" x="690" y="40" width="13" height="13" rx="2.5" fill="#161b22" style="animation-delay:5.184s"/><rect class="c g e" x="690" y="56" width="13" height="13" rx="2.5" fill="#161b22" style="animation-delay:5.202s"/><rect class="c g e" x="690" y="72" width="13" height="13" rx="2.5" fill="#161b22" style="animation-delay:5.22s"/><rect class="c g e" x="690" y="88" width="13" height="13" rx="2.5" fill="#161b22" style="animation-delay:5.238s"/><rect class="c g e" x="690" y="104" width="13" height="13" rx="2.5" fill="#161b22" style="animation-delay:5.256s"/><rect class="c g e" x="690" y="120" width="13" height="13" rx="2.5" fill="#161b22" style="animation-delay:5.274s"/><rect class="c g e" x="706" y="24" width="13" height="13" rx="2.5" fill="#161b22" style="animation-delay:5.292s"/><rect class="c g e" x="706" y="40" width="13" height="13" rx="2.5" fill="#161b22" style="animation-delay:5.31s"/><rect class="c g e" x="706" y="56" width="13" height="13" rx="2.5" fill="#161b22" style="animation-delay:5.328s"/><rect class="c g e" x="706" y="72" width="13" height="13" rx="2.5" fill="#161b22" style="animation-delay:5.346s"/><rect class="c g e" x="706" y="88" width="13" height="13" rx="2.5" fill="#161b22" style="animation-delay:5.364s"/><rect class="c g e" x="706" y="104" width="13" height="13" rx="2.5" fill="#161b22" style="animation-delay:5.382s"/><rect class="c g e" x="706" y="120" width="13" height="13" rx="2.5" fill="#161b22" style="animation-delay:5.4s"/><rect class="c g e" x="722" y="24" width="13" height="13" rx="2.5" fill="#161b22" style="animation-delay:5.418s"/><rect class="c g e" x="722" y="40" width="13" height="13" rx="2.5" fill="#161b22" style="animation-delay:5.436s"/><rect class="c g e" x="722" y="56" width="13" height="13" rx="2.5" fill="#161b22" style="animation-delay:5.454s"/><rect class="c g e" x="722" y="72" width="13" height="13" rx="2.5" fill="#161b22" style="animation-delay:5.472s"/><rect class="c g e" x="722" y="88" width="13" height="13" rx="2.5" fill="#161b22" style="animation-delay:5.49s"/><rect class="c g e" x="722" y="104" width="13" height="13" rx="2.5" fill="#161b22" style="animation-delay:5.508s"/><rect class="c g e" x="722" y="120" width="13" height="13" rx="2.5" fill="#161b22" style="animation-delay:5.526s"/><rect class="c g e" x="738" y="24" width="13" height="13" rx="2.5" fill="#161b22" style="animation-delay:5.544s"/><rect class="c g e" x="738" y="40" width="13" height="13" rx="2.5" fill="#161b22" style="animation-delay:5.562s"/><rect class="c g e" x="738" y="56" width="13" height="13" rx="2.5" fill="#161b22" style="animation-delay:5.58s"/><rect class="c g e" x="738" y="72" width="13" height="13" rx="2.5" fill="#161b22" style="animation-delay:5.598s"/><rect class="c g e" x="738" y="88" width="13" height="13" rx="2.5" fill="#161b22" style="animation-delay:5.616s"/><rect class="c g e" x="738" y="104" width="13" height="13" rx="2.5" fill="#161b22" style="animation-delay:5.634s"/><rect class="c g e" x="738" y="120" width="13" height="13" rx="2.5" fill="#161b22" style="animation-delay:5.652s"/><rect class="c g e" x="754" y="24" width="13" height="13" rx="2.5" fill="#161b22" style="animation-delay:5.67s"/><rect class="c g e" x="754" y="40" width="13" height="13" rx="2.5" fill="#161b22" style="animation-delay:5.688s"/><rect class="c g e" x="754" y="56" width="13" height="13" rx="2.5" fill="#161b22" style="animation-delay:5.706s"/><rect class="c g e" x="754" y="72" width="13" height="13" rx="2.5" fill="#161b22" style="animation-delay:5.724s"/><rect class="c g e" x="754" y="88" width="13" height="13" rx="2.5" fill="#161b22" style="animation-delay:5.742s"/><rect class="c g e" x="754" y="104" width="13" height="13" rx="2.5" fill="#161b22" style="animation-delay:5.76s"/><rect class="c g e" x="754" y="120" width="13" height="13" rx="2.5" fill="#161b22" style="animation-delay:5.778s"/><rect class="c g e" x="770" y="24" width="13" height="13" rx="2.5" fill="#161b22" style="animation-delay:5.796s"/><rect class="c g e" x="770" y="40" width="13" height="13" rx="2.5" fill="#161b22" style="animation-delay:5.814s"/><rect class="c g e" x="770" y="56" width="13" height="13" rx="2.5" fill="#161b22" style="animation-delay:5.832s"/><rect class="c g e" x="770" y="72" width="13" height="13" rx="2.5" fill="#161b22" style="animation-delay:5.85s"/><rect class="c g e" x="770" y="88" width="13" height="13" rx="2.5" fill="#161b22" style="animation-delay:5.868s"/><rect class="c g e" x="770" y="104" width="13" height="13" rx="2.5" fill="#161b22" style="animation-delay:5.886s"/><rect class="c g e" x="770" y="120" width="13" height="13" rx="2.5" fill="#161b22" style="animation-delay:5.904s"/><rect class="c g e" x="786" y="24" width="13" height="13" rx="2.5" fill="#161b22" style="animation-delay:5.922s"/><rect class="c g e" x="786" y="40" width="13" height="13" rx="2.5" fill="#161b22" style="animation-delay:5.94s"/><rect class="c g e" x="786" y="56" width="13" height="13" rx="2.5" fill="#161b22" style="animation-delay:5.958s"/><rect class="c g e" x="786" y="72" width="13" height="13" rx="2.5" fill="#161b22" style="animation-delay:5.976s"/><rect class="c g e" x="786" y="88" width="13" height="13" rx="2.5" fill="#161b22" style="animation-delay:5.994s"/><rect class="c g e" x="786" y="104" width="13" height="13" rx="2.5" fill="#161b22" style="animation-delay:6.012s"/><rect class="c g e" x="786" y="120" width="13" height="13" rx="2.5" fill="#161b22" style="animation-delay:6.03s"/><rect class="c g e" x="802" y="24" width="13" height="13" rx="2.5" fill="#161b22" style="animation-delay:6.048s"/><rect class="c g e" x="802" y="40" width="13" height="13" rx="2.5" fill="#161b22" style="animation-delay:6.066s"/><rect class="c g e" x="802" y="56" width="13" height="13" rx="2.5" fill="#161b22" style="animation-delay:6.084s"/><rect class="c g e" x="802" y="72" width="13" height="13" rx="2.5" fill="#161b22" style="animation-delay:6.102s"/><rect class="c g e" x="802" y="88" width="13" height="13" rx="2.5" fill="#161b22" style="animation-delay:6.12s"/><rect class="c g e" x="802" y="104" width="13" height="13" rx="2.5" fill="#161b22" style="animation-delay:6.138s"/><rect class="c g e" x="802" y="120" width="13" height="13" rx="2.5" fill="#161b22" style="animation-delay:6.156s"/><rect class="c g e" x="818" y="24" width="13" height="13" rx="2.5" fill="#161b22" style="animation-delay:6.174s"/><rect class="c g" x="818" y="40" width="13" height="13" rx="2.5" fill="#39d353" style="animation-delay:6.192s"/><rect class="c g e" x="818" y="56" width="13" height="13" rx="2.5" fill="#161b22" style="animation-delay:6.21s"/><rect class="c g e" x="818" y="72" width="13" height="13" rx="2.5" fill="#161b22" style="animation-delay:6.228s"/><rect class="c g e" x="818" y="88" width="13" height="13" rx="2.5" fill="#161b22" style="animation-delay:6.246s"/><rect class="c g e" x="818" y="104" width="13" height="13" rx="2.5" fill="#161b22" style="animation-delay:6.264s"/><rect class="c g e" x="818" y="120" width="13" height="13" rx="2.5" fill="#161b22" style="animation-delay:6.282s"/><rect class="c g e" x="834" y="24" width="13" height="13" rx="2.5" fill="#161b22" style="animation-delay:6.3s"/><rect class="c g e" x="834" y="40" width="13" height="13" rx="2.5" fill="#161b22" style="animation-delay:6.318s"/><rect class="c g e" x="834" y="56" width="13" height="13" rx="2.5" fill="#161b22" style="animation-delay:6.336s"/><rect class="c g e" x="834" y="72" width="13" height="13" rx="2.5" fill="#161b22" style="animation-delay:6.354s"/><rect class="c g e" x="834" y="88" width="13" height="13" rx="2.5" fill="#161b22" style="animation-delay:6.372s"/><rect class="c g e" x="834" y="104" width="13" height="13" rx="2.5" fill="#161b22" style="animation-delay:6.39s"/><rect class="c g e" x="834" y="120" width="13" height="13" rx="2.5" fill="#161b22" style="animation-delay:6.408s"/><rect class="c g e" x="850" y="24" width="13" height="13" rx="2.5" fill="#161b22" style="animation-delay:6.426s"/><rect class="c g e" x="850" y="40" width="13" height="13" rx="2.5" fill="#161b22" style="animation-delay:6.444s"/><rect class="c g e" x="850" y="56" width="13" height="13" rx="2.5" fill="#161b22" style="animation-delay:6.462s"/><rect class="c g e" x="850" y="72" width="13" height="13" rx="2.5" fill="#161b22" style="animation-delay:6.48s"/><rect class="c g e" x="850" y="88" width="13" height="13" rx="2.5" fill="#161b22" style="animation-delay:6.498s"/><rect class="c g e" x="850" y="104" width="13" height="13" rx="2.5" fill="#161b22" style="animation-delay:6.516s"/><rect class="c g e" x="850" y="120" width="13" height="13" rx="2.5" fill="#161b22" style="animation-delay:6.534s"/><rect class="c g e" x="866" y="24" width="13" height="13" rx="2.5" fill="#161b22" style="animation-delay:6.552s"/><rect class="c g e" x="866" y="40" width="13" height="13" rx="2.5" fill="#161b22" style="animation-delay:6.57s"/>
<text class="total" x="34" y="160">3 contributions in the last year</text>
</svg>
