<svg width="1440" height="580" viewBox="0 0 1440 580" fill="none" xmlns="http://www.w3.org/2000/svg">
<path fill-rule="evenodd" clip-rule="evenodd" d="M0 0L39.5 64L61 108C57 95 149 344.358 229 365C309 384.705 338 365 419 328.5C503.5 276 633.5 484 737.5 484C879.5 484 1007 343 1096.5 365C1176.2 384.591 1192.54 485.837 1329.5 557.5C1372.5 580 1440 580 1440 580V374V0H1400C1360 0 1280 0 1200 0C1120 0 1040 0 960 0C880 0 800 0 720 0C640 0 560 0 480 0C400 0 320 0 240 0C160 0 80 0 40 0H0Z" fill="url(#paint0_linear_12_4)"/>
<path d="M328.088 168.925V228H318.398V202.16H290.603V228H280.913V168.925H290.603V194.255H318.398V168.925H328.088ZM383.77 203.435C383.77 205.192 383.656 206.778 383.43 208.195H347.645C347.928 211.935 349.316 214.938 351.81 217.205C354.303 219.472 357.363 220.605 360.99 220.605C366.203 220.605 369.886 218.423 372.04 214.06H382.495C381.078 218.367 378.5 221.908 374.76 224.685C371.076 227.405 366.486 228.765 360.99 228.765C356.513 228.765 352.49 227.773 348.92 225.79C345.406 223.75 342.63 220.917 340.59 217.29C338.606 213.607 337.615 209.357 337.615 204.54C337.615 199.723 338.578 195.502 340.505 191.875C342.488 188.192 345.236 185.358 348.75 183.375C352.32 181.392 356.4 180.4 360.99 180.4C365.41 180.4 369.348 181.363 372.805 183.29C376.261 185.217 378.953 187.937 380.88 191.45C382.806 194.907 383.77 198.902 383.77 203.435ZM373.655 200.375C373.598 196.805 372.323 193.943 369.83 191.79C367.336 189.637 364.248 188.56 360.565 188.56C357.221 188.56 354.36 189.637 351.98 191.79C349.6 193.887 348.183 196.748 347.73 200.375H373.655ZM402.996 165.1V228H393.306V165.1H402.996ZM425.408 165.1V228H415.718V165.1H425.408ZM458.445 228.765C454.025 228.765 450.03 227.773 446.46 225.79C442.89 223.75 440.085 220.917 438.045 217.29C436.005 213.607 434.985 209.357 434.985 204.54C434.985 199.78 436.033 195.558 438.13 191.875C440.227 188.192 443.088 185.358 446.715 183.375C450.342 181.392 454.393 180.4 458.87 180.4C463.347 180.4 467.398 181.392 471.025 183.375C474.652 185.358 477.513 188.192 479.61 191.875C481.707 195.558 482.755 199.78 482.755 204.54C482.755 209.3 481.678 213.522 479.525 217.205C477.372 220.888 474.425 223.75 470.685 225.79C467.002 227.773 462.922 228.765 458.445 228.765ZM458.445 220.35C460.938 220.35 463.262 219.755 465.415 218.565C467.625 217.375 469.41 215.59 470.77 213.21C472.13 210.83 472.81 207.94 472.81 204.54C472.81 201.14 472.158 198.278 470.855 195.955C469.552 193.575 467.823 191.79 465.67 190.6C463.517 189.41 461.193 188.815 458.7 188.815C456.207 188.815 453.883 189.41 451.73 190.6C449.633 191.79 447.962 193.575 446.715 195.955C445.468 198.278 444.845 201.14 444.845 204.54C444.845 209.583 446.12 213.493 448.67 216.27C451.277 218.99 454.535 220.35 458.445 220.35ZM502.959 216.355L492.674 239.815H486.384L492.419 216.355H502.959ZM595.726 168.925V228H586.036V187.54L568.016 228H561.301L543.196 187.54V228H533.506V168.925H543.961L564.701 215.25L585.356 168.925H595.726ZM650.622 181.165L621.892 250.015H611.862L621.382 227.235L602.937 181.165H613.732L626.907 216.865L640.592 181.165H650.622ZM703.645 180.4C707.328 180.4 710.615 181.165 713.505 182.695C716.451 184.225 718.746 186.492 720.39 189.495C722.033 192.498 722.855 196.125 722.855 200.375V228H713.25V201.82C713.25 197.627 712.201 194.425 710.105 192.215C708.008 189.948 705.146 188.815 701.52 188.815C697.893 188.815 695.003 189.948 692.85 192.215C690.753 194.425 689.705 197.627 689.705 201.82V228H680.015V181.165H689.705V186.52C691.291 184.593 693.303 183.092 695.74 182.015C698.233 180.938 700.868 180.4 703.645 180.4ZM731.985 204.37C731.985 199.667 732.948 195.502 734.875 191.875C736.858 188.248 739.522 185.443 742.865 183.46C746.265 181.42 750.005 180.4 754.085 180.4C757.768 180.4 760.97 181.137 763.69 182.61C766.467 184.027 768.677 185.812 770.32 187.965V181.165H780.095V228H770.32V221.03C768.677 223.24 766.438 225.082 763.605 226.555C760.772 228.028 757.542 228.765 753.915 228.765C749.892 228.765 746.208 227.745 742.865 225.705C739.522 223.608 736.858 220.718 734.875 217.035C732.948 213.295 731.985 209.073 731.985 204.37ZM770.32 204.54C770.32 201.31 769.64 198.505 768.28 196.125C766.977 193.745 765.248 191.932 763.095 190.685C760.942 189.438 758.618 188.815 756.125 188.815C753.632 188.815 751.308 189.438 749.155 190.685C747.002 191.875 745.245 193.66 743.885 196.04C742.582 198.363 741.93 201.14 741.93 204.37C741.93 207.6 742.582 210.433 743.885 212.87C745.245 215.307 747.002 217.177 749.155 218.48C751.365 219.727 753.688 220.35 756.125 220.35C758.618 220.35 760.942 219.727 763.095 218.48C765.248 217.233 766.977 215.42 768.28 213.04C769.64 210.603 770.32 207.77 770.32 204.54ZM849.517 180.4C853.201 180.4 856.487 181.165 859.377 182.695C862.324 184.225 864.619 186.492 866.262 189.495C867.962 192.498 868.812 196.125 868.812 200.375V228H859.207V201.82C859.207 197.627 858.159 194.425 856.062 192.215C853.966 189.948 851.104 188.815 847.477 188.815C843.851 188.815 840.961 189.948 838.807 192.215C836.711 194.425 835.662 197.627 835.662 201.82V228H826.057V201.82C826.057 197.627 825.009 194.425 822.912 192.215C820.816 189.948 817.954 188.815 814.327 188.815C810.701 188.815 807.811 189.948 805.657 192.215C803.561 194.425 802.512 197.627 802.512 201.82V228H792.822V181.165H802.512V186.52C804.099 184.593 806.111 183.092 808.547 182.015C810.984 180.938 813.591 180.4 816.367 180.4C820.107 180.4 823.451 181.193 826.397 182.78C829.344 184.367 831.611 186.662 833.197 189.665C834.614 186.832 836.824 184.593 839.827 182.95C842.831 181.25 846.061 180.4 849.517 180.4ZM924.068 203.435C924.068 205.192 923.954 206.778 923.728 208.195H887.943C888.226 211.935 889.614 214.938 892.108 217.205C894.601 219.472 897.661 220.605 901.288 220.605C906.501 220.605 910.184 218.423 912.338 214.06H922.793C921.376 218.367 918.798 221.908 915.058 224.685C911.374 227.405 906.784 228.765 901.288 228.765C896.811 228.765 892.788 227.773 889.218 225.79C885.704 223.75 882.928 220.917 880.888 217.29C878.904 213.607 877.913 209.357 877.913 204.54C877.913 199.723 878.876 195.502 880.803 191.875C882.786 188.192 885.534 185.358 889.048 183.375C892.618 181.392 896.698 180.4 901.288 180.4C905.708 180.4 909.646 181.363 913.103 183.29C916.559 185.217 919.251 187.937 921.178 191.45C923.104 194.907 924.068 198.902 924.068 203.435ZM913.953 200.375C913.896 196.805 912.621 193.943 910.128 191.79C907.634 189.637 904.546 188.56 900.863 188.56C897.519 188.56 894.658 189.637 892.278 191.79C889.898 193.887 888.481 196.748 888.028 200.375H913.953ZM960.614 174.96C958.857 174.96 957.384 174.365 956.194 173.175C955.004 171.985 954.409 170.512 954.409 168.755C954.409 166.998 955.004 165.525 956.194 164.335C957.384 163.145 958.857 162.55 960.614 162.55C962.314 162.55 963.759 163.145 964.949 164.335C966.139 165.525 966.734 166.998 966.734 168.755C966.734 170.512 966.139 171.985 964.949 173.175C963.759 174.365 962.314 174.96 960.614 174.96ZM965.374 181.165V228H955.684V181.165H965.374ZM995.096 228.765C991.412 228.765 988.097 228.113 985.151 226.81C982.261 225.45 979.966 223.637 978.266 221.37C976.566 219.047 975.659 216.468 975.546 213.635H985.576C985.746 215.618 986.681 217.29 988.381 218.65C990.137 219.953 992.319 220.605 994.926 220.605C997.646 220.605 999.742 220.095 1001.22 219.075C1002.75 217.998 1003.51 216.638 1003.51 214.995C1003.51 213.238 1002.66 211.935 1000.96 211.085C999.317 210.235 996.682 209.3 993.056 208.28C989.542 207.317 986.681 206.382 984.471 205.475C982.261 204.568 980.334 203.18 978.691 201.31C977.104 199.44 976.311 196.975 976.311 193.915C976.311 191.422 977.047 189.155 978.521 187.115C979.994 185.018 982.091 183.375 984.811 182.185C987.587 180.995 990.761 180.4 994.331 180.4C999.657 180.4 1003.94 181.76 1007.17 184.48C1010.45 187.143 1012.21 190.798 1012.44 195.445H1002.75C1002.58 193.348 1001.73 191.677 1000.2 190.43C998.666 189.183 996.597 188.56 993.991 188.56C991.441 188.56 989.486 189.042 988.126 190.005C986.766 190.968 986.086 192.243 986.086 193.83C986.086 195.077 986.539 196.125 987.446 196.975C988.352 197.825 989.457 198.505 990.761 199.015C992.064 199.468 993.991 200.063 996.541 200.8C999.941 201.707 1002.72 202.642 1004.87 203.605C1007.08 204.512 1008.98 205.872 1010.57 207.685C1012.15 209.498 1012.97 211.907 1013.03 214.91C1013.03 217.573 1012.29 219.953 1010.82 222.05C1009.35 224.147 1007.25 225.79 1004.53 226.98C1001.87 228.17 998.722 228.765 995.096 228.765ZM1107.8 168.925V228H1098.11V187.54L1080.09 228H1073.38L1055.27 187.54V228H1045.58V168.925H1056.04L1076.78 215.25L1097.43 168.925H1107.8ZM1117.31 204.37C1117.31 199.667 1118.27 195.502 1120.2 191.875C1122.18 188.248 1124.84 185.443 1128.19 183.46C1131.59 181.42 1135.33 180.4 1139.41 180.4C1143.09 180.4 1146.29 181.137 1149.01 182.61C1151.79 184.027 1154 185.812 1155.64 187.965V181.165H1165.42V228H1155.64V221.03C1154 223.24 1151.76 225.082 1148.93 226.555C1146.09 228.028 1142.86 228.765 1139.24 228.765C1135.21 228.765 1131.53 227.745 1128.19 225.705C1124.84 223.608 1122.18 220.718 1120.2 217.035C1118.27 213.295 1117.31 209.073 1117.31 204.37ZM1155.64 204.54C1155.64 201.31 1154.96 198.505 1153.6 196.125C1152.3 193.745 1150.57 191.932 1148.42 190.685C1146.26 189.438 1143.94 188.815 1141.45 188.815C1138.95 188.815 1136.63 189.438 1134.48 190.685C1132.32 191.875 1130.57 193.66 1129.21 196.04C1127.9 198.363 1127.25 201.14 1127.25 204.37C1127.25 207.6 1127.9 210.433 1129.21 212.87C1130.57 215.307 1132.32 217.177 1134.48 218.48C1136.69 219.727 1139.01 220.35 1141.45 220.35C1143.94 220.35 1146.26 219.727 1148.42 218.48C1150.57 217.233 1152.3 215.42 1153.6 213.04C1154.96 210.603 1155.64 207.77 1155.64 204.54ZM1189.45 189.07V214.995C1189.45 216.752 1189.85 218.027 1190.64 218.82C1191.49 219.557 1192.91 219.925 1194.89 219.925H1200.84V228H1193.19C1188.83 228 1185.48 226.98 1183.16 224.94C1180.84 222.9 1179.67 219.585 1179.67 214.995V189.07H1174.15V181.165H1179.67V169.52H1189.45V181.165H1200.84V189.07H1189.45ZM1252.7 203.435C1252.7 205.192 1252.58 206.778 1252.36 208.195H1216.57C1216.85 211.935 1218.24 214.938 1220.74 217.205C1223.23 219.472 1226.29 220.605 1229.92 220.605C1235.13 220.605 1238.81 218.423 1240.97 214.06H1251.42C1250 218.367 1247.43 221.908 1243.69 224.685C1240 227.405 1235.41 228.765 1229.92 228.765C1225.44 228.765 1221.42 227.773 1217.85 225.79C1214.33 223.75 1211.56 220.917 1209.52 217.29C1207.53 213.607 1206.54 209.357 1206.54 204.54C1206.54 199.723 1207.5 195.502 1209.43 191.875C1211.41 188.192 1214.16 185.358 1217.68 183.375C1221.25 181.392 1225.33 180.4 1229.92 180.4C1234.34 180.4 1238.27 181.363 1241.73 183.29C1245.19 185.217 1247.88 187.937 1249.81 191.45C1251.73 194.907 1252.7 198.902 1252.7 203.435ZM1242.58 200.375C1242.52 196.805 1241.25 193.943 1238.76 191.79C1236.26 189.637 1233.17 188.56 1229.49 188.56C1226.15 188.56 1223.29 189.637 1220.91 191.79C1218.53 193.887 1217.11 196.748 1216.66 200.375H1242.58ZM1304.65 181.165V228H1294.96V222.475C1293.43 224.402 1291.41 225.932 1288.92 227.065C1286.48 228.142 1283.88 228.68 1281.1 228.68C1277.42 228.68 1274.1 227.915 1271.16 226.385C1268.27 224.855 1265.97 222.588 1264.27 219.585C1262.63 216.582 1261.81 212.955 1261.81 208.705V181.165H1271.41V207.26C1271.41 211.453 1272.46 214.683 1274.56 216.95C1276.65 219.16 1279.51 220.265 1283.14 220.265C1286.77 220.265 1289.63 219.16 1291.73 216.95C1293.88 214.683 1294.96 211.453 1294.96 207.26V181.165H1304.65ZM1334.43 228.765C1330.75 228.765 1327.43 228.113 1324.49 226.81C1321.6 225.45 1319.3 223.637 1317.6 221.37C1315.9 219.047 1314.99 216.468 1314.88 213.635H1324.91C1325.08 215.618 1326.02 217.29 1327.72 218.65C1329.47 219.953 1331.65 220.605 1334.26 220.605C1336.98 220.605 1339.08 220.095 1340.55 219.075C1342.08 217.998 1342.85 216.638 1342.85 214.995C1342.85 213.238 1342 211.935 1340.3 211.085C1338.65 210.235 1336.02 209.3 1332.39 208.28C1328.88 207.317 1326.02 206.382 1323.81 205.475C1321.6 204.568 1319.67 203.18 1318.03 201.31C1316.44 199.44 1315.65 196.975 1315.65 193.915C1315.65 191.422 1316.38 189.155 1317.86 187.115C1319.33 185.018 1321.43 183.375 1324.15 182.185C1326.92 180.995 1330.1 180.4 1333.67 180.4C1338.99 180.4 1343.27 181.76 1346.5 184.48C1349.79 187.143 1351.54 190.798 1351.77 195.445H1342.08C1341.91 193.348 1341.06 191.677 1339.53 190.43C1338 189.183 1335.93 188.56 1333.33 188.56C1330.78 188.56 1328.82 189.042 1327.46 190.005C1326.1 190.968 1325.42 192.243 1325.42 193.83C1325.42 195.077 1325.87 196.125 1326.78 196.975C1327.69 197.825 1328.79 198.505 1330.1 199.015C1331.4 199.468 1333.33 200.063 1335.88 200.8C1339.28 201.707 1342.05 202.642 1344.21 203.605C1346.42 204.512 1348.31 205.872 1349.9 207.685C1351.49 209.498 1352.31 211.907 1352.37 214.91C1352.37 217.573 1351.63 219.953 1350.16 222.05C1348.68 224.147 1346.59 225.79 1343.87 226.98C1341.2 228.17 1338.06 228.765 1334.43 228.765Z" fill="white"/>
<defs>
<linearGradient id="paint0_linear_12_4" x1="1440" y1="223" x2="-23.5" y2="216" gradientUnits="userSpaceOnUse">
<stop stop-color="#005C99"/>
<stop offset="0.60233" stop-color="#131874"/>
</linearGradient>
</defs>
</svg>
