<svg width="1440" height="580" viewBox="0 0 1440 580" fill="none" xmlns="http://www.w3.org/2000/svg">
<path fill-rule="evenodd" clip-rule="evenodd" d="M0 0L39.5 64L61 108C57 95 149 344.358 229 365C309 384.705 338 365 419 328.5C503.5 276 633.5 484 737.5 484C879.5 484 1007 343 1096.5 365C1176.2 384.591 1192.54 485.837 1329.5 557.5C1372.5 580 1440 580 1440 580V374V0H1400C1360 0 1280 0 1200 0C1120 0 1040 0 960 0C880 0 800 0 720 0C640 0 560 0 480 0C400 0 320 0 240 0C160 0 80 0 40 0H0Z" fill="url(#paint0_linear_12_4)"/>
<path d="M232.088 168.925V228H222.398V202.16H194.603V228H184.913V168.925H194.603V194.255H222.398V168.925H232.088ZM287.77 203.435C287.77 205.192 287.656 206.778 287.43 208.195H251.645C251.928 211.935 253.316 214.938 255.81 217.205C258.303 219.472 261.363 220.605 264.99 220.605C270.203 220.605 273.886 218.423 276.04 214.06H286.495C285.078 218.367 282.5 221.908 278.76 224.685C275.076 227.405 270.486 228.765 264.99 228.765C260.513 228.765 256.49 227.773 252.92 225.79C249.406 223.75 246.63 220.917 244.59 217.29C242.606 213.607 241.615 209.357 241.615 204.54C241.615 199.723 242.578 195.502 244.505 191.875C246.488 188.192 249.236 185.358 252.75 183.375C256.32 181.392 260.4 180.4 264.99 180.4C269.41 180.4 273.348 181.363 276.805 183.29C280.261 185.217 282.953 187.937 284.88 191.45C286.806 194.907 287.77 198.902 287.77 203.435ZM277.655 200.375C277.598 196.805 276.323 193.943 273.83 191.79C271.336 189.637 268.248 188.56 264.565 188.56C261.221 188.56 258.36 189.637 255.98 191.79C253.6 193.887 252.183 196.748 251.73 200.375H277.655ZM306.996 165.1V228H297.306V165.1H306.996ZM329.408 165.1V228H319.718V165.1H329.408ZM362.445 228.765C358.025 228.765 354.03 227.773 350.46 225.79C346.89 223.75 344.085 220.917 342.045 217.29C340.005 213.607 338.985 209.357 338.985 204.54C338.985 199.78 340.033 195.558 342.13 191.875C344.227 188.192 347.088 185.358 350.715 183.375C354.342 181.392 358.393 180.4 362.87 180.4C367.347 180.4 371.398 181.392 375.025 183.375C378.652 185.358 381.513 188.192 383.61 191.875C385.707 195.558 386.755 199.78 386.755 204.54C386.755 209.3 385.678 213.522 383.525 217.205C381.372 220.888 378.425 223.75 374.685 225.79C371.002 227.773 366.922 228.765 362.445 228.765ZM362.445 220.35C364.938 220.35 367.262 219.755 369.415 218.565C371.625 217.375 373.41 215.59 374.77 213.21C376.13 210.83 376.81 207.94 376.81 204.54C376.81 201.14 376.158 198.278 374.855 195.955C373.552 193.575 371.823 191.79 369.67 190.6C367.517 189.41 365.193 188.815 362.7 188.815C360.207 188.815 357.883 189.41 355.73 190.6C353.633 191.79 351.962 193.575 350.715 195.955C349.468 198.278 348.845 201.14 348.845 204.54C348.845 209.583 350.12 213.493 352.67 216.27C355.277 218.99 358.535 220.35 362.445 220.35ZM406.959 216.355L396.674 239.815H390.384L396.419 216.355H406.959ZM499.726 168.925V228H490.036V187.54L472.016 228H465.301L447.196 187.54V228H437.506V168.925H447.961L468.701 215.25L489.356 168.925H499.726ZM554.622 181.165L525.892 250.015H515.862L525.382 227.235L506.937 181.165H517.732L530.907 216.865L544.592 181.165H554.622ZM607.645 180.4C611.328 180.4 614.615 181.165 617.505 182.695C620.451 184.225 622.746 186.492 624.39 189.495C626.033 192.498 626.855 196.125 626.855 200.375V228H617.25V201.82C617.25 197.627 616.201 194.425 614.105 192.215C612.008 189.948 609.146 188.815 605.52 188.815C601.893 188.815 599.003 189.948 596.85 192.215C594.753 194.425 593.705 197.627 593.705 201.82V228H584.015V181.165H593.705V186.52C595.291 184.593 597.303 183.092 599.74 182.015C602.233 180.938 604.868 180.4 607.645 180.4ZM635.985 204.37C635.985 199.667 636.948 195.502 638.875 191.875C640.858 188.248 643.522 185.443 646.865 183.46C650.265 181.42 654.005 180.4 658.085 180.4C661.768 180.4 664.97 181.137 667.69 182.61C670.467 184.027 672.677 185.812 674.32 187.965V181.165H684.095V228H674.32V221.03C672.677 223.24 670.438 225.082 667.605 226.555C664.772 228.028 661.542 228.765 657.915 228.765C653.892 228.765 650.208 227.745 646.865 225.705C643.522 223.608 640.858 220.718 638.875 217.035C636.948 213.295 635.985 209.073 635.985 204.37ZM674.32 204.54C674.32 201.31 673.64 198.505 672.28 196.125C670.977 193.745 669.248 191.932 667.095 190.685C664.942 189.438 662.618 188.815 660.125 188.815C657.632 188.815 655.308 189.438 653.155 190.685C651.002 191.875 649.245 193.66 647.885 196.04C646.582 198.363 645.93 201.14 645.93 204.37C645.93 207.6 646.582 210.433 647.885 212.87C649.245 215.307 651.002 217.177 653.155 218.48C655.365 219.727 657.688 220.35 660.125 220.35C662.618 220.35 664.942 219.727 667.095 218.48C669.248 217.233 670.977 215.42 672.28 213.04C673.64 210.603 674.32 207.77 674.32 204.54ZM753.517 180.4C757.201 180.4 760.487 181.165 763.377 182.695C766.324 184.225 768.619 186.492 770.262 189.495C771.962 192.498 772.812 196.125 772.812 200.375V228H763.207V201.82C763.207 197.627 762.159 194.425 760.062 192.215C757.966 189.948 755.104 188.815 751.477 188.815C747.851 188.815 744.961 189.948 742.807 192.215C740.711 194.425 739.662 197.627 739.662 201.82V228H730.057V201.82C730.057 197.627 729.009 194.425 726.912 192.215C724.816 189.948 721.954 188.815 718.327 188.815C714.701 188.815 711.811 189.948 709.657 192.215C707.561 194.425 706.512 197.627 706.512 201.82V228H696.822V181.165H706.512V186.52C708.099 184.593 710.111 183.092 712.547 182.015C714.984 180.938 717.591 180.4 720.367 180.4C724.107 180.4 727.451 181.193 730.397 182.78C733.344 184.367 735.611 186.662 737.197 189.665C738.614 186.832 740.824 184.593 743.827 182.95C746.831 181.25 750.061 180.4 753.517 180.4ZM828.068 203.435C828.068 205.192 827.954 206.778 827.728 208.195H791.943C792.226 211.935 793.614 214.938 796.108 217.205C798.601 219.472 801.661 220.605 805.288 220.605C810.501 220.605 814.184 218.423 816.338 214.06H826.793C825.376 218.367 822.798 221.908 819.058 224.685C815.374 227.405 810.784 228.765 805.288 228.765C800.811 228.765 796.788 227.773 793.218 225.79C789.704 223.75 786.928 220.917 784.888 217.29C782.904 213.607 781.913 209.357 781.913 204.54C781.913 199.723 782.876 195.502 784.803 191.875C786.786 188.192 789.534 185.358 793.048 183.375C796.618 181.392 800.698 180.4 805.288 180.4C809.708 180.4 813.646 181.363 817.103 183.29C820.559 185.217 823.251 187.937 825.178 191.45C827.104 194.907 828.068 198.902 828.068 203.435ZM817.953 200.375C817.896 196.805 816.621 193.943 814.128 191.79C811.634 189.637 808.546 188.56 804.863 188.56C801.519 188.56 798.658 189.637 796.278 191.79C793.898 193.887 792.481 196.748 792.028 200.375H817.953ZM864.614 174.96C862.857 174.96 861.384 174.365 860.194 173.175C859.004 171.985 858.409 170.512 858.409 168.755C858.409 166.998 859.004 165.525 860.194 164.335C861.384 163.145 862.857 162.55 864.614 162.55C866.314 162.55 867.759 163.145 868.949 164.335C870.139 165.525 870.734 166.998 870.734 168.755C870.734 170.512 870.139 171.985 868.949 173.175C867.759 174.365 866.314 174.96 864.614 174.96ZM869.374 181.165V228H859.684V181.165H869.374ZM899.096 228.765C895.412 228.765 892.097 228.113 889.151 226.81C886.261 225.45 883.966 223.637 882.266 221.37C880.566 219.047 879.659 216.468 879.546 213.635H889.576C889.746 215.618 890.681 217.29 892.381 218.65C894.137 219.953 896.319 220.605 898.926 220.605C901.646 220.605 903.742 220.095 905.216 219.075C906.746 217.998 907.511 216.638 907.511 214.995C907.511 213.238 906.661 211.935 904.961 211.085C903.317 210.235 900.682 209.3 897.056 208.28C893.542 207.317 890.681 206.382 888.471 205.475C886.261 204.568 884.334 203.18 882.691 201.31C881.104 199.44 880.311 196.975 880.311 193.915C880.311 191.422 881.047 189.155 882.521 187.115C883.994 185.018 886.091 183.375 888.811 182.185C891.587 180.995 894.761 180.4 898.331 180.4C903.657 180.4 907.936 181.76 911.166 184.48C914.452 187.143 916.209 190.798 916.436 195.445H906.746C906.576 193.348 905.726 191.677 904.196 190.43C902.666 189.183 900.597 188.56 897.991 188.56C895.441 188.56 893.486 189.042 892.126 190.005C890.766 190.968 890.086 192.243 890.086 193.83C890.086 195.077 890.539 196.125 891.446 196.975C892.352 197.825 893.457 198.505 894.761 199.015C896.064 199.468 897.991 200.063 900.541 200.8C903.941 201.707 906.717 202.642 908.871 203.605C911.081 204.512 912.979 205.872 914.566 207.685C916.152 209.498 916.974 211.907 917.031 214.91C917.031 217.573 916.294 219.953 914.821 222.05C913.347 224.147 911.251 225.79 908.531 226.98C905.867 228.17 902.722 228.765 899.096 228.765ZM1011.8 168.925V228H1002.11V187.54L984.091 228H977.376L959.271 187.54V228H949.581V168.925H960.036L980.776 215.25L1001.43 168.925H1011.8ZM1021.31 204.37C1021.31 199.667 1022.27 195.502 1024.2 191.875C1026.18 188.248 1028.84 185.443 1032.19 183.46C1035.59 181.42 1039.33 180.4 1043.41 180.4C1047.09 180.4 1050.29 181.137 1053.01 182.61C1055.79 184.027 1058 185.812 1059.64 187.965V181.165H1069.42V228H1059.64V221.03C1058 223.24 1055.76 225.082 1052.93 226.555C1050.09 228.028 1046.86 228.765 1043.24 228.765C1039.21 228.765 1035.53 227.745 1032.19 225.705C1028.84 223.608 1026.18 220.718 1024.2 217.035C1022.27 213.295 1021.31 209.073 1021.31 204.37ZM1059.64 204.54C1059.64 201.31 1058.96 198.505 1057.6 196.125C1056.3 193.745 1054.57 191.932 1052.42 190.685C1050.26 189.438 1047.94 188.815 1045.45 188.815C1042.95 188.815 1040.63 189.438 1038.48 190.685C1036.32 191.875 1034.57 193.66 1033.21 196.04C1031.9 198.363 1031.25 201.14 1031.25 204.37C1031.25 207.6 1031.9 210.433 1033.21 212.87C1034.57 215.307 1036.32 217.177 1038.48 218.48C1040.69 219.727 1043.01 220.35 1045.45 220.35C1047.94 220.35 1050.26 219.727 1052.42 218.48C1054.57 217.233 1056.3 215.42 1057.6 213.04C1058.96 210.603 1059.64 207.77 1059.64 204.54ZM1093.45 189.07V214.995C1093.45 216.752 1093.85 218.027 1094.64 218.82C1095.49 219.557 1096.91 219.925 1098.89 219.925H1104.84V228H1097.19C1092.83 228 1089.48 226.98 1087.16 224.94C1084.84 222.9 1083.67 219.585 1083.67 214.995V189.07H1078.15V181.165H1083.67V169.52H1093.45V181.165H1104.84V189.07H1093.45ZM1156.7 203.435C1156.7 205.192 1156.58 206.778 1156.36 208.195H1120.57C1120.85 211.935 1122.24 214.938 1124.74 217.205C1127.23 219.472 1130.29 220.605 1133.92 220.605C1139.13 220.605 1142.81 218.423 1144.97 214.06H1155.42C1154 218.367 1151.43 221.908 1147.69 224.685C1144 227.405 1139.41 228.765 1133.92 228.765C1129.44 228.765 1125.42 227.773 1121.85 225.79C1118.33 223.75 1115.56 220.917 1113.52 217.29C1111.53 213.607 1110.54 209.357 1110.54 204.54C1110.54 199.723 1111.5 195.502 1113.43 191.875C1115.41 188.192 1118.16 185.358 1121.68 183.375C1125.25 181.392 1129.33 180.4 1133.92 180.4C1138.34 180.4 1142.27 181.363 1145.73 183.29C1149.19 185.217 1151.88 187.937 1153.81 191.45C1155.73 194.907 1156.7 198.902 1156.7 203.435ZM1146.58 200.375C1146.52 196.805 1145.25 193.943 1142.76 191.79C1140.26 189.637 1137.17 188.56 1133.49 188.56C1130.15 188.56 1127.29 189.637 1124.91 191.79C1122.53 193.887 1121.11 196.748 1120.66 200.375H1146.58ZM1208.65 181.165V228H1198.96V222.475C1197.43 224.402 1195.41 225.932 1192.92 227.065C1190.48 228.142 1187.88 228.68 1185.1 228.68C1181.42 228.68 1178.1 227.915 1175.16 226.385C1172.27 224.855 1169.97 222.588 1168.27 219.585C1166.63 216.582 1165.81 212.955 1165.81 208.705V181.165H1175.41V207.26C1175.41 211.453 1176.46 214.683 1178.56 216.95C1180.65 219.16 1183.51 220.265 1187.14 220.265C1190.77 220.265 1193.63 219.16 1195.73 216.95C1197.88 214.683 1198.96 211.453 1198.96 207.26V181.165H1208.65ZM1238.43 228.765C1234.75 228.765 1231.43 228.113 1228.49 226.81C1225.6 225.45 1223.3 223.637 1221.6 221.37C1219.9 219.047 1218.99 216.468 1218.88 213.635H1228.91C1229.08 215.618 1230.02 217.29 1231.72 218.65C1233.47 219.953 1235.65 220.605 1238.26 220.605C1240.98 220.605 1243.08 220.095 1244.55 219.075C1246.08 217.998 1246.85 216.638 1246.85 214.995C1246.85 213.238 1246 211.935 1244.3 211.085C1242.65 210.235 1240.02 209.3 1236.39 208.28C1232.88 207.317 1230.02 206.382 1227.81 205.475C1225.6 204.568 1223.67 203.18 1222.03 201.31C1220.44 199.44 1219.65 196.975 1219.65 193.915C1219.65 191.422 1220.38 189.155 1221.86 187.115C1223.33 185.018 1225.43 183.375 1228.15 182.185C1230.92 180.995 1234.1 180.4 1237.67 180.4C1242.99 180.4 1247.27 181.76 1250.5 184.48C1253.79 187.143 1255.54 190.798 1255.77 195.445H1246.08C1245.91 193.348 1245.06 191.677 1243.53 190.43C1242 189.183 1239.93 188.56 1237.33 188.56C1234.78 188.56 1232.82 189.042 1231.46 190.005C1230.1 190.968 1229.42 192.243 1229.42 193.83C1229.42 195.077 1229.87 196.125 1230.78 196.975C1231.69 197.825 1232.79 198.505 1234.1 199.015C1235.4 199.468 1237.33 200.063 1239.88 200.8C1243.28 201.707 1246.05 202.642 1248.21 203.605C1250.42 204.512 1252.31 205.872 1253.9 207.685C1255.49 209.498 1256.31 211.907 1256.37 214.91C1256.37 217.573 1255.63 219.953 1254.16 222.05C1252.68 224.147 1250.59 225.79 1247.87 226.98C1245.2 228.17 1242.06 228.765 1238.43 228.765Z" fill="white"/>
<defs>
<linearGradient id="paint0_linear_12_4" x1="1440" y1="223" x2="-23.5" y2="216" gradientUnits="userSpaceOnUse">
<stop stop-color="#005C99"/>
<stop offset="0.60233" stop-color="#131874"/>
</linearGradient>
</defs>
</svg>
