<svg width="1440" height="580" viewBox="0 0 1440 580" fill="none" xmlns="http://www.w3.org/2000/svg">
<path fill-rule="evenodd" clip-rule="evenodd" d="M0 0L39.5 64L61 108C57 95 149 344.358 229 365C309 384.705 338 365 419 328.5C503.5 276 633.5 484 737.5 484C879.5 484 1007 343 1096.5 365C1176.2 384.591 1192.54 485.837 1329.5 557.5C1372.5 580 1440 580 1440 580V374V0H1400C1360 0 1280 0 1200 0C1120 0 1040 0 960 0C880 0 800 0 720 0C640 0 560 0 480 0C400 0 320 0 240 0C160 0 80 0 40 0H0Z" fill="url(#paint0_linear_14_51)"/>
<path d="M501.1 159.35V208H493.12V186.72H470.23V208H462.25V159.35H470.23V180.21H493.12V159.35H501.1ZM546.955 187.77C546.955 189.217 546.862 190.523 546.675 191.69H517.205C517.439 194.77 518.582 197.243 520.635 199.11C522.689 200.977 525.209 201.91 528.195 201.91C532.489 201.91 535.522 200.113 537.295 196.52H545.905C544.739 200.067 542.615 202.983 539.535 205.27C536.502 207.51 532.722 208.63 528.195 208.63C524.509 208.63 521.195 207.813 518.255 206.18C515.362 204.5 513.075 202.167 511.395 199.18C509.762 196.147 508.945 192.647 508.945 188.68C508.945 184.713 509.739 181.237 511.325 178.25C512.959 175.217 515.222 172.883 518.115 171.25C521.055 169.617 524.415 168.8 528.195 168.8C531.835 168.8 535.079 169.593 537.925 171.18C540.772 172.767 542.989 175.007 544.575 177.9C546.162 180.747 546.955 184.037 546.955 187.77ZM538.625 185.25C538.579 182.31 537.529 179.953 535.475 178.18C533.422 176.407 530.879 175.52 527.845 175.52C525.092 175.52 522.735 176.407 520.775 178.18C518.815 179.907 517.649 182.263 517.275 185.25H538.625ZM562.789 156.2V208H554.809V156.2H562.789ZM581.246 156.2V208H573.266V156.2H581.246ZM608.453 208.63C604.813 208.63 601.523 207.813 598.583 206.18C595.643 204.5 593.333 202.167 591.653 199.18C589.973 196.147 589.133 192.647 589.133 188.68C589.133 184.76 589.996 181.283 591.723 178.25C593.449 175.217 595.806 172.883 598.793 171.25C601.779 169.617 605.116 168.8 608.803 168.8C612.489 168.8 615.826 169.617 618.813 171.25C621.799 172.883 624.156 175.217 625.883 178.25C627.609 181.283 628.473 184.76 628.473 188.68C628.473 192.6 627.586 196.077 625.813 199.11C624.039 202.143 621.613 204.5 618.533 206.18C615.499 207.813 612.139 208.63 608.453 208.63ZM608.453 201.7C610.506 201.7 612.419 201.21 614.193 200.23C616.013 199.25 617.483 197.78 618.603 195.82C619.723 193.86 620.283 191.48 620.283 188.68C620.283 185.88 619.746 183.523 618.673 181.61C617.599 179.65 616.176 178.18 614.403 177.2C612.629 176.22 610.716 175.73 608.663 175.73C606.609 175.73 604.696 176.22 602.923 177.2C601.196 178.18 599.819 179.65 598.793 181.61C597.766 183.523 597.253 185.88 597.253 188.68C597.253 192.833 598.303 196.053 600.403 198.34C602.549 200.58 605.233 201.7 608.453 201.7ZM645.111 198.41L636.641 217.73H631.461L636.431 198.41H645.111ZM721.508 159.35V208H713.528V174.68L698.688 208H693.158L678.248 174.68V208H670.268V159.35H678.878L695.958 197.5L712.968 159.35H721.508ZM766.716 169.43L743.056 226.13H734.796L742.636 207.37L727.446 169.43H736.336L747.186 198.83L758.456 169.43H766.716ZM810.382 168.8C813.415 168.8 816.122 169.43 818.502 170.69C820.929 171.95 822.819 173.817 824.172 176.29C825.525 178.763 826.202 181.75 826.202 185.25V208H818.292V186.44C818.292 182.987 817.429 180.35 815.702 178.53C813.975 176.663 811.619 175.73 808.632 175.73C805.645 175.73 803.265 176.663 801.492 178.53C799.765 180.35 798.902 182.987 798.902 186.44V208H790.922V169.43H798.902V173.84C800.209 172.253 801.865 171.017 803.872 170.13C805.925 169.243 808.095 168.8 810.382 168.8ZM833.721 188.54C833.721 184.667 834.514 181.237 836.101 178.25C837.734 175.263 839.928 172.953 842.681 171.32C845.481 169.64 848.561 168.8 851.921 168.8C854.954 168.8 857.591 169.407 859.831 170.62C862.118 171.787 863.938 173.257 865.291 175.03V169.43H873.341V208H865.291V202.26C863.938 204.08 862.094 205.597 859.761 206.81C857.428 208.023 854.768 208.63 851.781 208.63C848.468 208.63 845.434 207.79 842.681 206.11C839.928 204.383 837.734 202.003 836.101 198.97C834.514 195.89 833.721 192.413 833.721 188.54ZM865.291 188.68C865.291 186.02 864.731 183.71 863.611 181.75C862.538 179.79 861.114 178.297 859.341 177.27C857.568 176.243 855.654 175.73 853.601 175.73C851.548 175.73 849.634 176.243 847.861 177.27C846.088 178.25 844.641 179.72 843.521 181.68C842.448 183.593 841.911 185.88 841.911 188.54C841.911 191.2 842.448 193.533 843.521 195.54C844.641 197.547 846.088 199.087 847.861 200.16C849.681 201.187 851.594 201.7 853.601 201.7C855.654 201.7 857.568 201.187 859.341 200.16C861.114 199.133 862.538 197.64 863.611 195.68C864.731 193.673 865.291 191.34 865.291 188.68ZM930.512 168.8C933.546 168.8 936.252 169.43 938.632 170.69C941.059 171.95 942.949 173.817 944.302 176.29C945.702 178.763 946.402 181.75 946.402 185.25V208H938.492V186.44C938.492 182.987 937.629 180.35 935.902 178.53C934.176 176.663 931.819 175.73 928.832 175.73C925.846 175.73 923.466 176.663 921.692 178.53C919.966 180.35 919.102 182.987 919.102 186.44V208H911.192V186.44C911.192 182.987 910.329 180.35 908.602 178.53C906.876 176.663 904.519 175.73 901.532 175.73C898.546 175.73 896.166 176.663 894.392 178.53C892.666 180.35 891.802 182.987 891.802 186.44V208H883.822V169.43H891.802V173.84C893.109 172.253 894.766 171.017 896.772 170.13C898.779 169.243 900.926 168.8 903.212 168.8C906.292 168.8 909.046 169.453 911.472 170.76C913.899 172.067 915.766 173.957 917.072 176.43C918.239 174.097 920.059 172.253 922.532 170.9C925.006 169.5 927.666 168.8 930.512 168.8ZM991.907 187.77C991.907 189.217 991.813 190.523 991.627 191.69H962.157C962.39 194.77 963.533 197.243 965.587 199.11C967.64 200.977 970.16 201.91 973.147 201.91C977.44 201.91 980.473 200.113 982.247 196.52H990.857C989.69 200.067 987.567 202.983 984.487 205.27C981.453 207.51 977.673 208.63 973.147 208.63C969.46 208.63 966.147 207.813 963.207 206.18C960.313 204.5 958.027 202.167 956.347 199.18C954.713 196.147 953.897 192.647 953.897 188.68C953.897 184.713 954.69 181.237 956.277 178.25C957.91 175.217 960.173 172.883 963.067 171.25C966.007 169.617 969.367 168.8 973.147 168.8C976.787 168.8 980.03 169.593 982.877 171.18C985.723 172.767 987.94 175.007 989.527 177.9C991.113 180.747 991.907 184.037 991.907 187.77ZM983.577 185.25C983.53 182.31 982.48 179.953 980.427 178.18C978.373 176.407 975.83 175.52 972.797 175.52C970.043 175.52 967.687 176.407 965.727 178.18C963.767 179.907 962.6 182.263 962.227 185.25H983.577ZM1022 164.32C1020.56 164.32 1019.34 163.83 1018.36 162.85C1017.38 161.87 1016.89 160.657 1016.89 159.21C1016.89 157.763 1017.38 156.55 1018.36 155.57C1019.34 154.59 1020.56 154.1 1022 154.1C1023.4 154.1 1024.59 154.59 1025.57 155.57C1026.55 156.55 1027.04 157.763 1027.04 159.21C1027.04 160.657 1026.55 161.87 1025.57 162.85C1024.59 163.83 1023.4 164.32 1022 164.32ZM1025.92 169.43V208H1017.94V169.43H1025.92ZM1050.4 208.63C1047.37 208.63 1044.64 208.093 1042.21 207.02C1039.83 205.9 1037.94 204.407 1036.54 202.54C1035.14 200.627 1034.39 198.503 1034.3 196.17H1042.56C1042.7 197.803 1043.47 199.18 1044.87 200.3C1046.32 201.373 1048.11 201.91 1050.26 201.91C1052.5 201.91 1054.23 201.49 1055.44 200.65C1056.7 199.763 1057.33 198.643 1057.33 197.29C1057.33 195.843 1056.63 194.77 1055.23 194.07C1053.88 193.37 1051.71 192.6 1048.72 191.76C1045.83 190.967 1043.47 190.197 1041.65 189.45C1039.83 188.703 1038.24 187.56 1036.89 186.02C1035.58 184.48 1034.93 182.45 1034.93 179.93C1034.93 177.877 1035.54 176.01 1036.75 174.33C1037.96 172.603 1039.69 171.25 1041.93 170.27C1044.22 169.29 1046.83 168.8 1049.77 168.8C1054.16 168.8 1057.68 169.92 1060.34 172.16C1063.05 174.353 1064.49 177.363 1064.68 181.19H1056.7C1056.56 179.463 1055.86 178.087 1054.6 177.06C1053.34 176.033 1051.64 175.52 1049.49 175.52C1047.39 175.52 1045.78 175.917 1044.66 176.71C1043.54 177.503 1042.98 178.553 1042.98 179.86C1042.98 180.887 1043.35 181.75 1044.1 182.45C1044.85 183.15 1045.76 183.71 1046.83 184.13C1047.9 184.503 1049.49 184.993 1051.59 185.6C1054.39 186.347 1056.68 187.117 1058.45 187.91C1060.27 188.657 1061.83 189.777 1063.14 191.27C1064.45 192.763 1065.12 194.747 1065.17 197.22C1065.17 199.413 1064.56 201.373 1063.35 203.1C1062.14 204.827 1060.41 206.18 1058.17 207.16C1055.98 208.14 1053.39 208.63 1050.4 208.63ZM1143.22 159.35V208H1135.24V174.68L1120.4 208H1114.87L1099.96 174.68V208H1091.98V159.35H1100.59L1117.67 197.5L1134.68 159.35H1143.22ZM1151.05 188.54C1151.05 184.667 1151.84 181.237 1153.43 178.25C1155.06 175.263 1157.25 172.953 1160.01 171.32C1162.81 169.64 1165.89 168.8 1169.25 168.8C1172.28 168.8 1174.92 169.407 1177.16 170.62C1179.44 171.787 1181.26 173.257 1182.62 175.03V169.43H1190.67V208H1182.62V202.26C1181.26 204.08 1179.42 205.597 1177.09 206.81C1174.75 208.023 1172.09 208.63 1169.11 208.63C1165.79 208.63 1162.76 207.79 1160.01 206.11C1157.25 204.383 1155.06 202.003 1153.43 198.97C1151.84 195.89 1151.05 192.413 1151.05 188.54ZM1182.62 188.68C1182.62 186.02 1182.06 183.71 1180.94 181.75C1179.86 179.79 1178.44 178.297 1176.67 177.27C1174.89 176.243 1172.98 175.73 1170.93 175.73C1168.87 175.73 1166.96 176.243 1165.19 177.27C1163.41 178.25 1161.97 179.72 1160.85 181.68C1159.77 183.593 1159.24 185.88 1159.24 188.54C1159.24 191.2 1159.77 193.533 1160.85 195.54C1161.97 197.547 1163.41 199.087 1165.19 200.16C1167.01 201.187 1168.92 201.7 1170.93 201.7C1172.98 201.7 1174.89 201.187 1176.67 200.16C1178.44 199.133 1179.86 197.64 1180.94 195.68C1182.06 193.673 1182.62 191.34 1182.62 188.68ZM1210.46 175.94V197.29C1210.46 198.737 1210.78 199.787 1211.44 200.44C1212.14 201.047 1213.3 201.35 1214.94 201.35H1219.84V208H1213.54C1209.94 208 1207.19 207.16 1205.28 205.48C1203.36 203.8 1202.41 201.07 1202.41 197.29V175.94H1197.86V169.43H1202.41V159.84H1210.46V169.43H1219.84V175.94H1210.46ZM1262.54 187.77C1262.54 189.217 1262.45 190.523 1262.26 191.69H1232.79C1233.02 194.77 1234.17 197.243 1236.22 199.11C1238.27 200.977 1240.79 201.91 1243.78 201.91C1248.07 201.91 1251.11 200.113 1252.88 196.52H1261.49C1260.32 200.067 1258.2 202.983 1255.12 205.27C1252.09 207.51 1248.31 208.63 1243.78 208.63C1240.09 208.63 1236.78 207.813 1233.84 206.18C1230.95 204.5 1228.66 202.167 1226.98 199.18C1225.35 196.147 1224.53 192.647 1224.53 188.68C1224.53 184.713 1225.32 181.237 1226.91 178.25C1228.54 175.217 1230.81 172.883 1233.7 171.25C1236.64 169.617 1240 168.8 1243.78 168.8C1247.42 168.8 1250.66 169.593 1253.51 171.18C1256.36 172.767 1258.57 175.007 1260.16 177.9C1261.75 180.747 1262.54 184.037 1262.54 187.77ZM1254.21 185.25C1254.16 182.31 1253.11 179.953 1251.06 178.18C1249.01 176.407 1246.46 175.52 1243.43 175.52C1240.68 175.52 1238.32 176.407 1236.36 178.18C1234.4 179.907 1233.23 182.263 1232.86 185.25H1254.21ZM1305.32 169.43V208H1297.34V203.45C1296.08 205.037 1294.43 206.297 1292.37 207.23C1290.37 208.117 1288.22 208.56 1285.93 208.56C1282.9 208.56 1280.17 207.93 1277.74 206.67C1275.36 205.41 1273.47 203.543 1272.07 201.07C1270.72 198.597 1270.04 195.61 1270.04 192.11V169.43H1277.95V190.92C1277.95 194.373 1278.82 197.033 1280.54 198.9C1282.27 200.72 1284.63 201.63 1287.61 201.63C1290.6 201.63 1292.96 200.72 1294.68 198.9C1296.46 197.033 1297.34 194.373 1297.34 190.92V169.43H1305.32ZM1329.85 208.63C1326.82 208.63 1324.09 208.093 1321.66 207.02C1319.28 205.9 1317.39 204.407 1315.99 202.54C1314.59 200.627 1313.85 198.503 1313.75 196.17H1322.01C1322.15 197.803 1322.92 199.18 1324.32 200.3C1325.77 201.373 1327.57 201.91 1329.71 201.91C1331.95 201.91 1333.68 201.49 1334.89 200.65C1336.15 199.763 1336.78 198.643 1336.78 197.29C1336.78 195.843 1336.08 194.77 1334.68 194.07C1333.33 193.37 1331.16 192.6 1328.17 191.76C1325.28 190.967 1322.92 190.197 1321.1 189.45C1319.28 188.703 1317.7 187.56 1316.34 186.02C1315.04 184.48 1314.38 182.45 1314.38 179.93C1314.38 177.877 1314.99 176.01 1316.2 174.33C1317.42 172.603 1319.14 171.25 1321.38 170.27C1323.67 169.29 1326.28 168.8 1329.22 168.8C1333.61 168.8 1337.13 169.92 1339.79 172.16C1342.5 174.353 1343.95 177.363 1344.13 181.19H1336.15C1336.01 179.463 1335.31 178.087 1334.05 177.06C1332.79 176.033 1331.09 175.52 1328.94 175.52C1326.84 175.52 1325.23 175.917 1324.11 176.71C1322.99 177.503 1322.43 178.553 1322.43 179.86C1322.43 180.887 1322.81 181.75 1323.55 182.45C1324.3 183.15 1325.21 183.71 1326.28 184.13C1327.36 184.503 1328.94 184.993 1331.04 185.6C1333.84 186.347 1336.13 187.117 1337.9 187.91C1339.72 188.657 1341.29 189.777 1342.59 191.27C1343.9 192.763 1344.58 194.747 1344.62 197.22C1344.62 199.413 1344.02 201.373 1342.8 203.1C1341.59 204.827 1339.86 206.18 1337.62 207.16C1335.43 208.14 1332.84 208.63 1329.85 208.63Z" fill="white"/>
<defs>
<linearGradient id="paint0_linear_14_51" x1="1440" y1="223" x2="-23.5" y2="216" gradientUnits="userSpaceOnUse">
<stop stop-color="#131874"/>
<stop offset="0.750997" stop-color="#005C99"/>
</linearGradient>
</defs>
</svg>
